<mxfile host="app.diagrams.net" modified="2022-02-21T10:17:00.730Z" agent="5.0 (Macintosh; Intel Mac OS X 10_15_7) AppleWebKit/537.36 (KHTML, like Gecko) Chrome/98.0.4758.80 Safari/537.36" etag="eh74jIKgaqdOJ2QCvHgo" version="16.6.1" type="github">
  <diagram id="-dsDvkoyRtKYcbEGkUUT" name="Page-1">
    <mxGraphModel dx="1379" dy="771" grid="1" gridSize="10" guides="1" tooltips="1" connect="1" arrows="1" fold="1" page="1" pageScale="1" pageWidth="827" pageHeight="1169" math="0" shadow="0">
      <root>
        <mxCell id="0" />
        <mxCell id="1" parent="0" />
        <mxCell id="WFJUhvU05FfJuuGlY87Z-2" value="" style="rounded=0;whiteSpace=wrap;html=1;fontSize=19;" vertex="1" parent="1">
          <mxGeometry x="340" y="170" width="210" height="60" as="geometry" />
        </mxCell>
        <mxCell id="WFJUhvU05FfJuuGlY87Z-14" style="edgeStyle=orthogonalEdgeStyle;rounded=0;orthogonalLoop=1;jettySize=auto;html=1;entryX=0.417;entryY=0;entryDx=0;entryDy=0;entryPerimeter=0;fontSize=14;fontColor=#3399FF;" edge="1" parent="1" source="WFJUhvU05FfJuuGlY87Z-1" target="WFJUhvU05FfJuuGlY87Z-7">
          <mxGeometry relative="1" as="geometry">
            <Array as="points">
              <mxPoint x="370" y="315" />
              <mxPoint x="170" y="315" />
            </Array>
          </mxGeometry>
        </mxCell>
        <mxCell id="WFJUhvU05FfJuuGlY87Z-15" style="edgeStyle=orthogonalEdgeStyle;rounded=0;orthogonalLoop=1;jettySize=auto;html=1;fontSize=14;fontColor=#3399FF;" edge="1" parent="1" source="WFJUhvU05FfJuuGlY87Z-1" target="WFJUhvU05FfJuuGlY87Z-8">
          <mxGeometry relative="1" as="geometry" />
        </mxCell>
        <mxCell id="WFJUhvU05FfJuuGlY87Z-16" style="edgeStyle=orthogonalEdgeStyle;rounded=0;orthogonalLoop=1;jettySize=auto;html=1;fontSize=14;fontColor=#3399FF;" edge="1" parent="1" source="WFJUhvU05FfJuuGlY87Z-1" target="WFJUhvU05FfJuuGlY87Z-9">
          <mxGeometry relative="1" as="geometry" />
        </mxCell>
        <mxCell id="WFJUhvU05FfJuuGlY87Z-1" value="&lt;font style=&quot;font-size: 19px&quot;&gt;cxu/attribution/v1/minerva/cxu/attribution/v1&lt;/font&gt;" style="rounded=1;whiteSpace=wrap;html=1;" vertex="1" parent="1">
          <mxGeometry x="110" y="140" width="520" height="100" as="geometry" />
        </mxCell>
        <mxCell id="WFJUhvU05FfJuuGlY87Z-19" style="edgeStyle=orthogonalEdgeStyle;rounded=0;orthogonalLoop=1;jettySize=auto;html=1;exitX=0.5;exitY=1;exitDx=0;exitDy=0;fontSize=14;fontColor=#FF3333;" edge="1" parent="1" source="WFJUhvU05FfJuuGlY87Z-7" target="WFJUhvU05FfJuuGlY87Z-10">
          <mxGeometry relative="1" as="geometry" />
        </mxCell>
        <mxCell id="WFJUhvU05FfJuuGlY87Z-7" value="&lt;font color=&quot;#009900&quot;&gt;cxu&lt;span style=&quot;white-space: pre&quot;&gt;	&lt;/span&gt;&lt;/font&gt;" style="rounded=0;whiteSpace=wrap;html=1;fontSize=19;fontColor=#000000;" vertex="1" parent="1">
          <mxGeometry x="120" y="370" width="120" height="60" as="geometry" />
        </mxCell>
        <mxCell id="WFJUhvU05FfJuuGlY87Z-20" style="edgeStyle=orthogonalEdgeStyle;rounded=0;orthogonalLoop=1;jettySize=auto;html=1;fontSize=14;fontColor=#FF3333;" edge="1" parent="1" source="WFJUhvU05FfJuuGlY87Z-8" target="WFJUhvU05FfJuuGlY87Z-13">
          <mxGeometry relative="1" as="geometry" />
        </mxCell>
        <mxCell id="WFJUhvU05FfJuuGlY87Z-8" value="&lt;font&gt;attribution/v1&lt;/font&gt;" style="rounded=0;whiteSpace=wrap;html=1;fontSize=19;fontColor=#3399FF;" vertex="1" parent="1">
          <mxGeometry x="310" y="370" width="120" height="60" as="geometry" />
        </mxCell>
        <mxCell id="WFJUhvU05FfJuuGlY87Z-21" style="edgeStyle=orthogonalEdgeStyle;rounded=0;orthogonalLoop=1;jettySize=auto;html=1;fontSize=14;fontColor=#FF3333;" edge="1" parent="1" source="WFJUhvU05FfJuuGlY87Z-9" target="WFJUhvU05FfJuuGlY87Z-18">
          <mxGeometry relative="1" as="geometry" />
        </mxCell>
        <mxCell id="WFJUhvU05FfJuuGlY87Z-9" value="&lt;font color=&quot;#ff3333&quot;&gt;minerva/cxu/attribution/v1&lt;/font&gt;" style="rounded=0;whiteSpace=wrap;html=1;fontSize=19;fontColor=#000000;" vertex="1" parent="1">
          <mxGeometry x="490" y="390" width="240" height="60" as="geometry" />
        </mxCell>
        <mxCell id="WFJUhvU05FfJuuGlY87Z-10" value="&lt;font style=&quot;font-size: 14px&quot;&gt;Logical&lt;/font&gt;&amp;nbsp;&lt;font style=&quot;font-size: 15px&quot;&gt;partner&lt;/font&gt; &lt;font style=&quot;font-size: 14px&quot;&gt;separation&lt;/font&gt;" style="ellipse;shape=cloud;whiteSpace=wrap;html=1;fontSize=19;fontColor=#009900;" vertex="1" parent="1">
          <mxGeometry x="60" y="485" width="150" height="80" as="geometry" />
        </mxCell>
        <mxCell id="WFJUhvU05FfJuuGlY87Z-13" value="Outer package where &lt;i&gt;setup.py or requires.txt and MANIFEST files exist&lt;/i&gt;" style="ellipse;shape=cloud;whiteSpace=wrap;html=1;fontSize=14;fontColor=#FF3333;" vertex="1" parent="1">
          <mxGeometry x="230" y="475" width="260" height="120" as="geometry" />
        </mxCell>
        <mxCell id="WFJUhvU05FfJuuGlY87Z-18" value="&lt;font style=&quot;font-size: 17px&quot;&gt;App&lt;/font&gt; for eg:- minerva.cxu.attribution.v1" style="ellipse;shape=cloud;whiteSpace=wrap;html=1;fontSize=14;fontColor=#FF3333;" vertex="1" parent="1">
          <mxGeometry x="520" y="485" width="200" height="100" as="geometry" />
        </mxCell>
        <mxCell id="WFJUhvU05FfJuuGlY87Z-22" value="Above diagram represents the app structure. As each version of an app has its own packaging mechanism , that is the reason we have this kind of separation. The &lt;i&gt;setup.py&amp;nbsp;&lt;/i&gt;&amp;nbsp;that resides inside the &lt;i&gt;&lt;font color=&quot;#3399ff&quot;&gt;attribution/v1&lt;/font&gt;&amp;nbsp;&lt;/i&gt;builds the app &lt;font color=&quot;#ff3333&quot;&gt;&lt;i&gt;minerva.cxu.attribution.v1&amp;nbsp;&lt;/i&gt;&lt;/font&gt;Similarly , the &lt;i&gt;setup.py that would reside in &lt;font color=&quot;#3399ff&quot;&gt;attribution/v2&amp;nbsp;&lt;/font&gt;&lt;/i&gt;builds the app &lt;font color=&quot;#ff3333&quot;&gt;&lt;i&gt;minerva.cxu.attribution.v2&lt;/i&gt;&lt;/font&gt;" style="text;html=1;strokeColor=none;fillColor=none;align=center;verticalAlign=middle;whiteSpace=wrap;rounded=0;fontSize=14;fontColor=#000000;" vertex="1" parent="1">
          <mxGeometry x="30" y="660" width="730" height="60" as="geometry" />
        </mxCell>
        <mxCell id="WFJUhvU05FfJuuGlY87Z-24" value="&lt;span style=&quot;color: rgb(0 , 0 , 0)&quot;&gt;The other &lt;/span&gt;&lt;font color=&quot;#009900&quot;&gt;cxu&lt;/font&gt;&lt;span style=&quot;color: rgb(0 , 0 , 0)&quot;&gt; folder is a logical separation just to group the partners. If we have eloqua apps, there would be another logical separation &lt;/span&gt;&lt;font color=&quot;#009900&quot;&gt;eloqua&lt;/font&gt;&lt;span style=&quot;color: rgb(0 , 0 , 0)&quot;&gt;&amp;nbsp;&lt;/span&gt;" style="text;html=1;strokeColor=none;fillColor=none;align=center;verticalAlign=middle;whiteSpace=wrap;rounded=0;fontSize=14;fontColor=#FF3333;" vertex="1" parent="1">
          <mxGeometry x="40" y="750" width="680" height="30" as="geometry" />
        </mxCell>
        <mxCell id="WFJUhvU05FfJuuGlY87Z-25" value="&lt;span style=&quot;color: rgb(0 , 0 , 0) ; font-size: 14px&quot;&gt;The logical separation is just to keep all partner apps and customizations in proper folder structure and to enable automation in our pipeline. For eg:- I want to build all cxu apps and customizations. Hence the need for grouping&lt;/span&gt;" style="text;html=1;strokeColor=none;fillColor=none;align=center;verticalAlign=middle;whiteSpace=wrap;rounded=0;fontSize=17;fontColor=#009900;" vertex="1" parent="1">
          <mxGeometry x="40" y="810" width="740" height="40" as="geometry" />
        </mxCell>
      </root>
    </mxGraphModel>
  </diagram>
</mxfile>
